<svg width="310" height="310" viewBox="0 0 310 310" fill="none" xmlns="http://www.w3.org/2000/svg">
<path fill-rule="evenodd" clip-rule="evenodd" d="M115.756 238.554C77.7511 209.427 25.8335 161.311 25.8335 115.818C25.8335 39.8172 96.8772 11.4424 155 70.1519C213.123 11.4424 284.167 39.8172 284.167 115.817C284.167 161.312 232.25 209.427 194.245 238.554C177.04 251.741 168.437 258.333 155 258.333C141.563 258.333 132.96 251.741 115.756 238.554ZM213.125 80.7292C218.475 80.7292 222.813 85.0665 222.813 90.4167V106.563H238.959C244.309 106.563 248.646 110.9 248.646 116.25C248.646 121.6 244.309 125.938 238.959 125.938H222.813V142.083C222.813 147.433 218.475 151.771 213.125 151.771C207.775 151.771 203.438 147.433 203.438 142.083V125.938H187.292C181.942 125.938 177.604 121.6 177.604 116.25C177.604 110.9 181.942 106.563 187.292 106.563H203.438V90.4167C203.438 85.0665 207.775 80.7292 213.125 80.7292Z" fill="#35047F"/>
</svg>
